<svg viewBox="0 0 33.866666 33.866666" xmlns="http://www.w3.org/2000/svg" aria-hidden="true">
  <path fill="currentColor" d="M 9.5751261 2.9036987 C 7.3483269 2.9036987 5.5381632 4.3964423 5.5381632 6.2321777 L 5.5381632 26.201501 C 5.5381632 28.037237 7.3483269 29.52998 9.5751261 29.52998 L 25.724528 29.52998 C 27.951329 29.52998 29.761491 28.037237 29.761491 26.201501 L 29.761491 11.775509 C 29.761491 10.891443 29.339221 10.044142 28.582235 9.4200968 L 21.863782 3.8762492 C 21.106795 3.2522035 20.078473 2.9036987 19.006075 2.9036987 L 9.5751261 2.9036987 z M 18.659326 5.9458903 L 26.071277 12.056628 L 20.172929 12.056628 C 19.333938 12.056628 18.659326 11.500294 18.659326 10.808643 L 18.659326 5.9458903 z M 9.4035604 7.2207479 L 15.31276 7.2207479 C 16.151753 7.2207479 16.826363 7.7776002 16.826363 8.4692505 C 16.826363 9.1609008 16.151753 9.7172363 15.31276 9.7172363 L 9.4035604 9.7172363 C 8.5645662 9.7172363 7.8899577 9.1609008 7.8899577 8.4692505 C 7.8899577 7.7776002 8.5645662 7.2207479 9.4035604 7.2207479 z M 9.4035604 12.213208 L 15.31276 12.213208 C 16.151753 12.213208 16.826363 12.769543 16.826363 13.461194 C 16.826363 14.152845 16.151753 14.709696 15.31276 14.709696 L 9.4035604 14.709696 C 8.5645662 14.709696 7.8899577 14.152845 7.8899577 13.461194 C 7.8899577 12.769543 8.5645662 12.213208 9.4035604 12.213208 z M 19.96674 15.942696 A 2.5603088 2.5603088 0 1 1 19.96674 21.063314 A 2.5603088 2.5603088 0 1 1 19.96674 15.942696 z M 25.481132 17.714164 A 1.7724383 1.7724383 0 0 1 27.253634 19.487699 A 1.7725016 1.7725016 0 1 1 23.70863 19.487699 A 1.7724383 1.7724383 0 0 1 25.481132 17.714164 z M 14.452348 17.715198 A 1.7725016 1.7725016 0 0 1 14.452348 21.260201 A 1.7725016 1.7725016 0 0 1 14.452348 17.715198 z M 19.96674 22.244637 C 22.142898 22.244637 23.905518 24.007257 23.905518 26.183415 L 23.905518 26.577189 C 23.905518 27.012914 23.553693 27.365255 23.117969 27.365255 L 16.815511 27.365255 C 16.379787 27.365255 16.027962 27.012914 16.027962 26.577189 L 16.027962 26.183415 C 16.027962 24.007257 17.790582 22.244637 19.96674 22.244637 z M 15.240413 22.638411 C 15.555512 22.638411 15.860348 22.685574 16.148368 22.771737 C 15.338463 23.677649 14.846122 24.873782 14.846122 26.183415 L 14.846122 26.577189 C 14.846122 26.857825 14.905632 27.124007 15.011487 27.365255 L 12.876733 27.365255 C 12.441008 27.365255 12.089185 27.012914 12.089185 26.577189 L 12.089185 25.78964 C 12.089185 24.049206 13.499978 22.638411 15.240413 22.638411 z M 24.693066 22.638411 C 26.4335 22.638411 27.844295 24.049206 27.844295 25.78964 L 27.844295 26.577189 C 27.844295 27.012914 27.491953 27.365255 27.05623 27.365255 L 24.921993 27.365255 C 25.027847 27.124007 25.086841 26.857825 25.086841 26.577189 L 25.086841 26.183415 C 25.086841 24.873782 24.594499 23.677649 23.784595 22.771737 C 24.072615 22.685577 24.377966 22.638411 24.693066 22.638411 z"/>
</svg>
