<?xml version="1.0" encoding="UTF-8" standalone="no"?>
<svg
   viewBox="0 0 512.00002 512.00002"
   aria-hidden="true"
   version="1.1"
   id="svg4"
   sodipodi:docname="icon.svg"
   width="512"
   height="512"
   inkscape:export-filename="icon.png"
   inkscape:export-xdpi="96"
   inkscape:export-ydpi="96"
   inkscape:version="1.2.2 (732a01da63, 2022-12-09)"
   xmlns:inkscape="http://www.inkscape.org/namespaces/inkscape"
   xmlns:sodipodi="http://sodipodi.sourceforge.net/DTD/sodipodi-0.dtd"
   xmlns="http://www.w3.org/2000/svg"
   xmlns:svg="http://www.w3.org/2000/svg">
  <defs
     id="defs8" />
  <sodipodi:namedview
     id="namedview6"
     pagecolor="#505050"
     bordercolor="#eeeeee"
     borderopacity="1"
     inkscape:showpageshadow="0"
     inkscape:pageopacity="0"
     inkscape:pagecheckerboard="0"
     inkscape:deskcolor="#505050"
     showgrid="false"
     inkscape:zoom="0.38247419"
     inkscape:cx="67.978444"
     inkscape:cy="303.28844"
     inkscape:window-width="1920"
     inkscape:window-height="1009"
     inkscape:window-x="-8"
     inkscape:window-y="-8"
     inkscape:window-maximized="1"
     inkscape:current-layer="svg4" />
  <circle
     style="opacity:1;fill:#3a9c3a;stroke:none;stroke-width:1.88976;fill-opacity:1"
     id="path285"
     cx="256"
     cy="256"
     r="256" />
  <rect
     style="opacity:1;fill:#ffffff;fill-opacity:1;stroke:none;stroke-width:1.88976"
     id="rect1821"
     width="307.71399"
     height="367.68835"
     x="102.14301"
     y="72.155823"
     ry="37.911057" />
  <path
     fill="currentColor"
     d="m 281.92605,269.9174 c 18.12244,0 32.81354,13.94337 32.81354,31.14338 0,17.2 -14.6911,31.14337 -32.81354,31.14337 -18.12244,0 -32.81354,-13.94337 -32.81354,-31.14337 0,-17.20001 14.6911,-31.14338 32.81354,-31.14338 z m 70.67381,21.54798 c 12.55151,-4.3e-4 22.72458,9.66048 22.71682,21.57313 0,11.90757 -10.17067,21.56055 -22.71682,21.56055 -12.54616,0 -22.71683,-9.65298 -22.71683,-21.56055 -0.008,-11.91265 10.16531,-21.57356 22.71683,-21.57313 z m -141.34763,0.0121 c 12.54132,0.006 22.70441,9.65758 22.70441,21.56055 0,11.90296 -10.16309,21.55405 -22.70441,21.56055 -12.54131,-0.006 -22.7044,-9.65759 -22.7044,-21.56055 0,-11.90297 10.16309,-21.55405 22.7044,-21.56055 z m 70.67382,55.09569 c 27.89017,0 50.48035,21.44035 50.48035,47.91095 v 4.78983 c 0,5.30012 -4.50908,9.58597 -10.09343,9.58597 h -80.77385 c -5.58435,0 -10.09342,-4.28585 -10.09342,-9.58597 v -4.78983 c 0,-26.4706 22.59017,-47.91095 50.48035,-47.91095 z m -60.57378,4.78983 c 4.03839,0 7.94524,0.57365 11.63658,1.62177 -10.37994,11.01943 -16.68991,25.56909 -16.68991,41.49935 v 4.78983 c 0,3.41363 0.7627,6.65144 2.11936,9.58597 h -27.35954 c -5.58435,0 -10.0934,-4.28585 -10.0934,-9.58597 v -9.57926 c 0,-21.17049 18.08107,-38.33127 40.38691,-38.33127 z m 121.14754,0 c 22.30583,0 40.38693,17.16079 40.38693,38.33128 v 9.5797 c 0,5.30013 -4.5157,9.58597 -10.10004,9.58597 h -27.35291 c 1.35665,-2.93452 2.11273,-6.17234 2.11273,-9.58597 v -4.78983 c 0,-15.93026 -6.30997,-30.47992 -16.6899,-41.49935 3.69134,-1.04804 7.60479,-1.62177 11.64319,-1.62177 z"
     id="path2"
     style="fill:#3a9c3a;fill-opacity:1;stroke-width:12.4858"
     sodipodi:nodetypes="sssssccscccscscssssssssccsscsssccsssscsscss" />
  <path
     style="opacity:1;fill:#ffffff;fill-opacity:1;stroke:#3a9c3a;stroke-width:30;stroke-linecap:round;stroke-dasharray:none;stroke-opacity:1"
     d="M 145.53503,116.34773 H 366.46497"
     id="path1929" />
  <path
     style="fill:#ffffff;fill-opacity:1;stroke:#3a9c3a;stroke-width:30;stroke-linecap:round;stroke-dasharray:none;stroke-opacity:1"
     d="M 145.53503,173.85066 H 366.46497"
     id="path1929-2" />
  <path
     style="fill:#ffffff;fill-opacity:1;stroke:#3a9c3a;stroke-width:30;stroke-linecap:round;stroke-dasharray:none;stroke-opacity:1"
     d="M 145.53503,231.35359 H 366.46497"
     id="path1929-0" />
</svg>
