<?xml version="1.0" encoding="UTF-8" standalone="no"?>
<svg
   viewBox="0 0 512.00002 512.00002"
   aria-hidden="true"
   version="1.1"
   id="svg4"
   sodipodi:docname="icon.svg"
   width="512"
   height="512"
   inkscape:export-filename="icon.png"
   inkscape:export-xdpi="96"
   inkscape:export-ydpi="96"
   inkscape:version="1.2.2 (732a01da63, 2022-12-09)"
   xmlns:inkscape="http://www.inkscape.org/namespaces/inkscape"
   xmlns:sodipodi="http://sodipodi.sourceforge.net/DTD/sodipodi-0.dtd"
   xmlns="http://www.w3.org/2000/svg"
   xmlns:svg="http://www.w3.org/2000/svg">
  <defs
     id="defs8" />
  <sodipodi:namedview
     id="namedview6"
     pagecolor="#505050"
     bordercolor="#eeeeee"
     borderopacity="1"
     inkscape:showpageshadow="0"
     inkscape:pageopacity="0"
     inkscape:pagecheckerboard="0"
     inkscape:deskcolor="#505050"
     showgrid="false"
     inkscape:zoom="0.76494837"
     inkscape:cx="211.12536"
     inkscape:cy="189.55528"
     inkscape:window-width="1920"
     inkscape:window-height="1009"
     inkscape:window-x="-8"
     inkscape:window-y="-8"
     inkscape:window-maximized="1"
     inkscape:current-layer="svg4" />
  <path
     fill="currentColor"
     d="m 133.75272,54.445139 c -33.71272,0 -61.117773,22.599456 -61.117773,50.391651 v 302.32642 c 0,27.7922 27.405053,50.39165 61.117773,50.39165 h 244.49455 c 33.71275,0 61.11778,-22.59945 61.11778,-50.39165 V 188.76029 c 0,-13.38436 -6.39298,-26.21211 -17.8534,-35.65986 L 319.79735,69.169109 C 308.33691,59.721343 292.76858,54.445139 276.53297,54.445139 Z M 271.28335,100.50253 383.4969,193.0163 h -89.2983 c -12.70194,0 -22.91525,-8.42264 -22.91525,-18.89392 z m -140.12806,19.30076 h 89.46258 c 12.70197,0 22.91526,8.43049 22.91526,18.90176 0,10.47127 -10.21329,18.89393 -22.91526,18.89393 h -89.46258 c -12.70199,0 -22.91525,-8.42266 -22.91525,-18.89393 0,-10.47127 10.21326,-18.90176 22.91525,-18.90176 z m 0,75.58356 h 89.46258 c 12.70197,0 22.91526,8.42266 22.91526,18.89394 0,10.47128 -10.21329,18.90175 -22.91526,18.90175 h -89.46258 c -12.70199,0 -22.91525,-8.43047 -22.91525,-18.90175 0,-10.47128 10.21326,-18.89394 22.91525,-18.89394 z M 291.077,251.84959 a 38.76191,38.76191 0 1 1 0,77.52382 38.76191,38.76191 0 1 1 0,-77.52382 z m 83.48537,26.81922 a 26.833905,26.833905 0 0 1 26.83487,26.85051 26.83487,26.83487 0 1 1 -53.66974,0 26.833905,26.833905 0 0 1 26.83487,-26.85051 z m -166.97075,0.0151 a 26.834864,26.834864 0 0 1 0,53.66972 26.834864,26.834864 0 0 1 0,-53.66972 z m 83.48538,68.57363 c 32.94603,0 59.63129,26.68526 59.63129,59.6313 v 5.96156 c 0,6.59668 -5.32647,11.93096 -11.92313,11.93096 h -95.41633 c -6.59666,0 -11.92313,-5.33428 -11.92313,-11.93096 v -5.96156 c 0,-32.94604 26.68526,-59.6313 59.6313,-59.6313 z m -71.55443,5.96156 c 4.77045,0 9.38553,0.71398 13.74602,2.0185 -12.26159,13.71509 -19.71541,31.824 -19.71541,51.65124 v 5.96156 c 0,4.2487 0.90096,8.27857 2.50355,11.93096 h -32.3192 c -6.59667,0 -11.92311,-5.33428 -11.92311,-11.93096 v -11.92262 c 0,-26.34937 21.35876,-47.70816 47.70815,-47.70816 z m 143.10884,0 c 26.34938,0 47.70817,21.35879 47.70817,47.70817 v 11.92317 c 0,6.59668 -5.3343,11.93096 -11.93095,11.93096 h -32.31137 c 1.60258,-3.65239 2.49572,-7.68226 2.49572,-11.93096 v -5.96156 c 0,-19.82724 -7.45383,-37.93615 -19.7154,-51.65124 4.36049,-1.30443 8.98336,-2.0185 13.75383,-2.0185 z"
     id="path2"
     style="stroke-width:15.1395;fill:#ffffff" />
</svg>
